<?xml version="1.0"?>
<svg xmlns="http://www.w3.org/2000/svg" viewBox="0 0 32 32">
    <path style="text-indent:0;text-align:start;line-height:normal;text-transform:none;block-progression:tb;-inkscape-font-specification:Bitstream Vera Sans" d="M 16 4 C 11.041282 4 7 8.0412819 7 13 C 7 16.909144 9.5073542 20.230411 13 21.46875 L 13 23 L 5 23 L 5 25 L 14 25 L 15 25 L 15 24 L 15 21.9375 C 15.333041 21.975105 15.657156 22 16 22 C 16.342844 22 16.666959 21.975105 17 21.9375 L 17 24 L 17 25 L 18 25 L 27 25 L 27 23 L 19 23 L 19 21.46875 C 22.492646 20.230411 25 16.909144 25 13 C 25 8.0412819 20.958718 4 16 4 z M 16 6 C 19.877838 6 23 9.1221621 23 13 C 23 16.877838 19.877838 20 16 20 C 12.122162 20 9 16.877838 9 13 C 9 9.1221621 12.122162 6 16 6 z M 19.28125 8.28125 L 16.5 11.0625 C 16.340241 11.021396 16.172589 11 16 11 C 14.895431 11 14 11.895431 14 13 C 14 14.104569 14.895431 15 16 15 C 17.104569 15 18 14.104569 18 13 C 18 12.827411 17.978604 12.659759 17.9375 12.5 L 20.71875 9.71875 L 19.28125 8.28125 z M 5 26 L 5 28 L 27 28 L 27 26 L 5 26 z"/>
</svg>
