<?xml version="1.0" encoding="UTF-8" standalone="no"?>
<svg
   xmlns:dc="http://purl.org/dc/elements/1.1/"
   xmlns:cc="http://creativecommons.org/ns#"
   xmlns:rdf="http://www.w3.org/1999/02/22-rdf-syntax-ns#"
   xmlns:svg="http://www.w3.org/2000/svg"
   xmlns="http://www.w3.org/2000/svg"
   xmlns:sodipodi="http://sodipodi.sourceforge.net/DTD/sodipodi-0.dtd"
   xmlns:inkscape="http://www.inkscape.org/namespaces/inkscape"
   version="1.1"
   x="0px"
   y="0px"
   viewBox="0 0 50 62.5"
   enable-background="new 0 0 50 50"
   xml:space="preserve"
   id="svg10"
   sodipodi:docname="fuel.svg"
   inkscape:version="0.92.4 (5da689c313, 2019-01-14)"><metadata
     id="metadata16"><rdf:RDF><cc:Work
         rdf:about=""><dc:format>image/svg+xml</dc:format><dc:type
           rdf:resource="http://purl.org/dc/dcmitype/StillImage" /></cc:Work></rdf:RDF></metadata><defs
     id="defs14" /><sodipodi:namedview
     pagecolor="#ffffff"
     bordercolor="#666666"
     borderopacity="1"
     objecttolerance="10"
     gridtolerance="10"
     guidetolerance="10"
     inkscape:pageopacity="0"
     inkscape:pageshadow="2"
     inkscape:window-width="1920"
     inkscape:window-height="1017"
     id="namedview12"
     showgrid="false"
     inkscape:zoom="3.776"
     inkscape:cx="25"
     inkscape:cy="31.25"
     inkscape:window-x="-8"
     inkscape:window-y="-8"
     inkscape:window-maximized="1"
     inkscape:current-layer="svg10" /><g
     id="g4"
     transform="matrix(1.0415361,0,0,1.2058556,-0.10799377,-0.24702678)"><path
       d="m 40.8,6.9 c -0.6,-0.6 -1.5,-0.6 -2.1,0 -0.6,0.6 -0.6,1.5 0,2.1 l 2.2,2.2 c -0.3,0.7 -0.5,1.4 -0.5,2.2 0,2.5 1.7,4.6 4,5.3 V 38 c 0,1.1 -0.9,2 -2,2 -1.1,0 -2,-0.9 -2,-2 v -1.4 c 0,-3.2 -2.6,-5.8 -5.8,-5.8 V 7.7 C 34.6,4.1 31.7,1.2 28.1,1.2 H 12.6 C 9,1.2 6.1,4.1 6.1,7.7 v 37.6 0 c -1.9,0 -3.5,1.5 -3.5,3.5 h 35.8 c 0,-1.9 -1.5,-3.5 -3.5,-3.5 H 34.4 V 33.9 c 1.5,0 2.8,1.2 2.8,2.8 V 38 c 0,2.8 2.3,5 5,5 2.8,0 5,-2.3 5,-5 V 14.1 C 47.4,13 46.8,13.1 40.8,6.9 Z M 11.1,7.7 c 0,-0.9 0.7,-1.5 1.6,-1.5 H 28 c 0.8,0 1.5,0.7 1.5,1.5 V 19.5 H 11.1 Z"
       id="path2"
       inkscape:connector-curvature="0" /></g></svg>