<?xml version="1.0" encoding="UTF-8" standalone="no"?>
<svg
   xmlns:dc="http://purl.org/dc/elements/1.1/"
   xmlns:cc="http://creativecommons.org/ns#"
   xmlns:rdf="http://www.w3.org/1999/02/22-rdf-syntax-ns#"
   xmlns:svg="http://www.w3.org/2000/svg"
   xmlns="http://www.w3.org/2000/svg"
   xmlns:sodipodi="http://sodipodi.sourceforge.net/DTD/sodipodi-0.dtd"
   xmlns:inkscape="http://www.inkscape.org/namespaces/inkscape"
   viewBox="0 0 25 25"
   version="1.1"
   id="svg24"
   sodipodi:docname="length.svg"
   width="25"
   height="25"
   inkscape:version="0.92.4 (5da689c313, 2019-01-14)">
  <metadata
     id="metadata30">
    <rdf:RDF>
      <cc:Work
         rdf:about="">
        <dc:format>image/svg+xml</dc:format>
        <dc:type
           rdf:resource="http://purl.org/dc/dcmitype/StillImage" />
        <dc:title></dc:title>
      </cc:Work>
    </rdf:RDF>
  </metadata>
  <defs
     id="defs28" />
  <sodipodi:namedview
     pagecolor="#ffffff"
     bordercolor="#666666"
     borderopacity="1"
     objecttolerance="10"
     gridtolerance="10"
     guidetolerance="10"
     inkscape:pageopacity="0"
     inkscape:pageshadow="2"
     inkscape:window-width="640"
     inkscape:window-height="480"
     id="namedview26"
     showgrid="false"
     inkscape:zoom="7.375"
     inkscape:cx="16"
     inkscape:cy="16"
     inkscape:window-x="0"
     inkscape:window-y="0"
     inkscape:window-maximized="0"
     inkscape:current-layer="svg24" />
  <path
     style="line-height:normal;-inkscape-font-specification:'Bitstream Vera Sans';text-indent:0;text-align:start;text-transform:none"
     d="M 17.005826,0.11917373 16.287076,0.83792376 0.78707627,16.337924 l -0.71875,0.71875 0.71875,0.71875 6.43750003,6.4375 0.71875,0.71875 0.71875,-0.71875 15.4999997,-15.5000002 0.71875,-0.71875 -0.71875,-0.71875 -6.4375,-6.43750004 z m 0,2.84375007 5.03125,5.03125 -14.0937497,14.0937502 -5.03125,-5.03125 1.15625,-1.15625 2.15625,2.15625 1.4375,-1.40625 -2.1875,-2.1875 1.1875,-1.15625 0.875,0.875 1.40625,-1.4375 -0.875,-0.84375 1.1875,-1.1875 2.1562497,2.15625 1.40625,-1.40625 -2.15625,-2.1562502 1.1875,-1.1875 0.84375,0.875 1.4375,-1.40625 -0.875,-0.875 1.15625,-1.1875 2.1875,2.1875 1.40625,-1.4375 -2.15625,-2.15625 z"
     id="path22"
     inkscape:connector-curvature="0" />
</svg>
