<?xml version="1.0" encoding="UTF-8" standalone="no"?>
<svg
   xmlns:dc="http://purl.org/dc/elements/1.1/"
   xmlns:cc="http://creativecommons.org/ns#"
   xmlns:rdf="http://www.w3.org/1999/02/22-rdf-syntax-ns#"
   xmlns:svg="http://www.w3.org/2000/svg"
   xmlns="http://www.w3.org/2000/svg"
   xmlns:sodipodi="http://sodipodi.sourceforge.net/DTD/sodipodi-0.dtd"
   xmlns:inkscape="http://www.inkscape.org/namespaces/inkscape"
   version="1.1"
   x="0px"
   y="0px"
   viewBox="0 0 100 125"
   enable-background="new 0 0 100 100"
   xml:space="preserve"
   id="svg26"
   sodipodi:docname="pressure.svg"
   inkscape:version="0.92.4 (5da689c313, 2019-01-14)"><metadata
     id="metadata32"><rdf:RDF><cc:Work
         rdf:about=""><dc:format>image/svg+xml</dc:format><dc:type
           rdf:resource="http://purl.org/dc/dcmitype/StillImage" /></cc:Work></rdf:RDF></metadata><defs
     id="defs30" /><sodipodi:namedview
     pagecolor="#ffffff"
     bordercolor="#666666"
     borderopacity="1"
     objecttolerance="10"
     gridtolerance="10"
     guidetolerance="10"
     inkscape:pageopacity="0"
     inkscape:pageshadow="2"
     inkscape:window-width="1920"
     inkscape:window-height="1017"
     id="namedview28"
     showgrid="false"
     inkscape:zoom="1.888"
     inkscape:cx="50"
     inkscape:cy="62.5"
     inkscape:window-x="-8"
     inkscape:window-y="-8"
     inkscape:window-maximized="1"
     inkscape:current-layer="svg26" /><ellipse
     cx="49.978001"
     cy="67.527206"
     id="circle2"
     rx="6.638"
     ry="6.1083388"
     style="stroke-width:0.95927459" /><circle
     cx="43.703323"
     cy="58.021561"
     r="1.9579999"
     id="circle6" /><circle
     cx="42.130337"
     cy="75.874527"
     r="1.9579999"
     id="circle10" /><circle
     cx="56.35593"
     cy="76.78688"
     r="1.9579999"
     id="circle12" /><circle
     cx="57.334"
     cy="57.850052"
     r="1.9579999"
     id="circle14" /><path
     d="M 81.097099,101.63843 C 88.627777,93.346561 93.330495,83.390794 93.647178,66.414357 94.311284,30.813579 75.006661,1.9527627 50.529661,1.9527627 c -24.477,0 -44.85835,28.8593623 -45.5224833,64.4615943 -0.3174154,17.015708 4.0333865,26.890027 11.2842733,35.205163 -2.463856,1.01085 -4.259856,3.6376 -4.317511,6.72832 -0.07396,3.96486 2.734077,7.1792 6.272077,7.1792 h 60.329 c 3.538,0 6.465961,-3.21434 6.539923,-7.1792 0.05827,-3.07036 -1.616969,-5.68402 -4.017841,-6.70941 z M 49.904873,34.266464 c 12.245,0 21.901662,14.438408 21.56946,32.246796 -0.332203,17.808388 -10.52854,32.246796 -22.77254,32.246796 -12.244,0 -21.90169,-14.436954 -21.56946,-32.246796 0.332229,-17.809842 10.52754,-32.246796 22.77254,-32.246796 z"
     id="path20"
     inkscape:connector-curvature="0"
     style="stroke-width:1.20600915" /></svg>