<?xml version="1.0" encoding="UTF-8" standalone="no"?>
<svg
   xmlns:dc="http://purl.org/dc/elements/1.1/"
   xmlns:cc="http://creativecommons.org/ns#"
   xmlns:rdf="http://www.w3.org/1999/02/22-rdf-syntax-ns#"
   xmlns:svg="http://www.w3.org/2000/svg"
   xmlns="http://www.w3.org/2000/svg"
   xmlns:sodipodi="http://sodipodi.sourceforge.net/DTD/sodipodi-0.dtd"
   xmlns:inkscape="http://www.inkscape.org/namespaces/inkscape"
   width="24"
   height="24"
   viewBox="0 0 24 24"
   version="1.1"
   id="svg4"
   sodipodi:docname="retrieve.svg"
   inkscape:version="0.92.4 (5da689c313, 2019-01-14)">
  <metadata
     id="metadata10">
    <rdf:RDF>
      <cc:Work
         rdf:about="">
        <dc:format>image/svg+xml</dc:format>
        <dc:type
           rdf:resource="http://purl.org/dc/dcmitype/StillImage" />
      </cc:Work>
    </rdf:RDF>
  </metadata>
  <defs
     id="defs8" />
  <sodipodi:namedview
     pagecolor="#ffffff"
     bordercolor="#666666"
     borderopacity="1"
     objecttolerance="10"
     gridtolerance="10"
     guidetolerance="10"
     inkscape:pageopacity="0"
     inkscape:pageshadow="2"
     inkscape:window-width="1920"
     inkscape:window-height="1017"
     id="namedview6"
     showgrid="false"
     inkscape:zoom="9.8333333"
     inkscape:cx="12"
     inkscape:cy="12"
     inkscape:window-x="-8"
     inkscape:window-y="-8"
     inkscape:window-maximized="1"
     inkscape:current-layer="svg4" />
  <path
     d="m 10.382057,19.931796 c -0.36928,0.02237 -0.7210555,0.03431 -1.0394869,0.03431 -2.8442095,-4e-6 -6.6753898,-0.747258 -6.6753898,-1.949428 v -1.521356 c 1.8313975,1.038847 4.5955824,1.356542 6.7512465,1.325967 C 9.2967227,17.344 9.2842188,16.784678 9.3475716,16.331254 h -0.005 c -2.8442095,0 -6.6753898,-0.746508 -6.6753898,-1.948678 v -1.762983 c 1.7638767,1.000068 4.309661,1.327458 6.6753898,1.327458 L 9.8168829,13.938851 10.15282,12.43241 C 9.8677319,12.44658 9.5926471,12.45553 9.3417365,12.45553 6.4866903,12.45478 2.6671803,11.704542 2.6671803,10.505356 V 8.7371525 c 1.7647103,1.0008136 4.309661,1.3274575 6.6753898,1.3274575 2.3582269,0 4.8981759,-0.3266439 6.6620519,-1.3274575 v 1.7689495 c 0,0.649559 -0.325933,1.000813 -0.83359,1.257356 0.98197,0 1.758042,0.210305 2.500771,0.527254 V 6.8115932 C 17.671803,4.3050847 12.699438,3.559322 9.3425701,3.559322 5.8206518,3.559322 1,4.3058305 1,6.8115932 V 18.20461 c 0,2.507254 5.1757612,3.253017 8.3425701,3.253017 0.7794069,0 1.6821849,-0.04623 2.5999679,-0.152881 -0.859432,-0.515323 -1.157023,-0.845695 -1.560481,-1.37295 z M 9.3425701,5.0508475 c 3.0326009,0 6.6620519,0.6778982 6.6620519,1.7607457 0,1.1790508 -4.254644,1.7607458 -6.6620519,1.7607458 -2.8442095,7.457e-4 -6.6753898,-0.6749153 -6.6753898,-1.7607458 0,-1.1812881 4.0112357,-1.7607457 6.6753898,-1.7607457 z M 15.171032,16.237289 h -4.16795 l 0.83359,-3.728814 1.163692,1.301356 c 0.632695,-0.348272 1.372923,-0.555594 2.170668,-0.555594 2.02229,0 3.705309,1.289424 4.085426,2.997966 l -1.633837,0.296814 c -0.225903,-1.026169 -1.238715,-1.803254 -2.451589,-1.803254 -0.402624,0 -0.777739,0.09322 -1.112842,0.246847 z m 4.167951,1.491524 h -4.167951 l 1.112843,1.244678 c -0.335103,0.153627 -0.710219,0.246848 -1.112843,0.246848 -1.212873,0 -2.225685,-0.777085 -2.451588,-1.803254 l -1.633837,0.296813 c 0.380117,1.708543 2.063136,2.997966 4.085425,2.997966 0.797746,0 1.537974,-0.207322 2.170669,-0.555593 l 1.163692,1.301356 z"
     id="path2"
     inkscape:connector-curvature="0"
     style="stroke-width:0.78845447" />
</svg>
