<?xml version="1.0"?>
<svg xmlns="http://www.w3.org/2000/svg" viewBox="0 0 32 32">
    <path d="M 16 5 C 9.3845336 5 4 10.384534 4 17 C 4 20.443755 5.4572366 23.535223 7.78125 25.71875 L 8.09375 26 L 8.46875 26 L 23.53125 26 L 23.90625 26 L 24.21875 25.71875 C 26.542763 23.535223 28 20.443755 28 17 C 28 10.384534 22.615466 5 16 5 z M 16 7 C 21.534534 7 26 11.465466 26 17 C 26 19.75443 24.833306 22.191438 23.03125 24 L 8.96875 24 C 7.1666942 22.191438 6 19.75443 6 17 C 6 11.465466 10.465466 7 16 7 z M 16 8 C 15.447715 8 15 8.4477153 15 9 C 15 9.5522847 15.447715 10 16 10 C 16.552285 10 17 9.5522847 17 9 C 17 8.4477153 16.552285 8 16 8 z M 12 9.0625 C 11.447715 9.0625 11 9.5102148 11 10.0625 C 11 10.614784 11.447715 11.0625 12 11.0625 C 12.552285 11.0625 13 10.614784 13 10.0625 C 13 9.5102148 12.552285 9.0625 12 9.0625 z M 20 9.0625 C 19.447715 9.0625 19 9.5102148 19 10.0625 C 19 10.614784 19.447715 11.0625 20 11.0625 C 20.552285 11.0625 21 10.614784 21 10.0625 C 21 9.5102148 20.552285 9.0625 20 9.0625 z M 9.0625 12 C 8.5102153 12 8.0625 12.447715 8.0625 13 C 8.0625 13.552285 8.5102153 14 9.0625 14 C 9.6147848 14 10.0625 13.552285 10.0625 13 C 10.0625 12.447715 9.6147848 12 9.0625 12 z M 22.9375 12 C 22.740507 12 22.561063 12.0579 22.40625 12.15625 L 17 15.28125 C 16.705456 15.110492 16.364965 15 16 15 C 14.895431 15 14 15.895431 14 17 C 14 18.104569 14.895431 19 16 19 C 17.104569 19 18 18.104569 18 17 L 23.3125 13.90625 C 23.671415 13.754442 23.9375 13.414214 23.9375 13 C 23.9375 12.447715 23.489785 12 22.9375 12 z M 8 16 C 7.4477153 16 7 16.447715 7 17 C 7 17.552285 7.4477153 18 8 18 C 8.5522847 18 9 17.552285 9 17 C 9 16.447715 8.5522847 16 8 16 z M 24 16 C 23.447715 16 23 16.447715 23 17 C 23 17.552285 23.447715 18 24 18 C 24.552285 18 25 17.552285 25 17 C 25 16.447715 24.552285 16 24 16 z M 9.0625 20 C 8.5102153 20 8.0625 20.447715 8.0625 21 C 8.0625 21.552285 8.5102153 22 9.0625 22 C 9.6147848 22 10.0625 21.552285 10.0625 21 C 10.0625 20.447715 9.6147848 20 9.0625 20 z M 22.9375 20 C 22.385216 20 21.9375 20.447715 21.9375 21 C 21.9375 21.552285 22.385216 22 22.9375 22 C 23.489785 22 23.9375 21.552285 23.9375 21 C 23.9375 20.447715 23.489785 20 22.9375 20 z"/>
</svg>
