<?xml version="1.0"?>
<svg xmlns="http://www.w3.org/2000/svg" viewBox="0 0 32 32">
    <path style="text-indent:0;text-align:start;line-height:normal;text-transform:none;block-progression:tb;-inkscape-font-specification:Bitstream Vera Sans" d="M 12 4 L 12 5 L 12 15.46875 C 10.249757 16.737271 9 18.675347 9 21 C 9 24.854334 12.145666 28 16 28 C 19.854334 28 23 24.854334 23 21 C 23 18.675347 21.749832 16.737695 20 15.46875 L 20 14 L 22 14 L 22 12 L 20 12 L 20 10 L 22 10 L 22 8 L 20 8 L 20 6 L 22 6 L 22 4 L 19 4 L 13 4 L 12 4 z M 14 6 L 18 6 L 18 15.8125 L 18 16.40625 L 18.5 16.6875 C 19.99496 17.554894 21 19.147156 21 21 C 21 23.773666 18.773666 26 16 26 C 13.226334 26 11 23.773666 11 21 C 11 19.147156 12.005659 17.5537 13.5 16.6875 L 14 16.40625 L 14 15.8125 L 14 6 z M 15 8 L 15 18.1875 C 13.841652 18.603011 13 19.698679 13 21 C 13 22.656854 14.343146 24 16 24 C 17.656854 24 19 22.656854 19 21 C 19 19.698679 18.158348 18.603011 17 18.1875 L 17 8 L 15 8 z" overflow="visible" font-family="Bitstream Vera Sans"/>
</svg>
