<?xml version="1.0"?>
<svg xmlns="http://www.w3.org/2000/svg" viewBox="0 0 32 32">
    <path style="text-indent:0;text-align:start;line-height:normal;text-transform:none;block-progression:tb;-inkscape-font-specification:Bitstream Vera Sans" d="M 16 5 C 14.354991 5 13 6.3549901 13 8 C 13 8.3529917 13.073239 8.6842395 13.1875 9 L 9 9 L 8.1875 9 L 8.03125 9.8125 L 5.03125 24.8125 L 5 24.90625 L 5 25 L 5 26 L 5 27 L 6 27 L 26 27 L 27 27 L 27 26 L 27 25 L 27 24.90625 L 26.96875 24.8125 L 23.96875 9.8125 L 23.8125 9 L 23 9 L 18.8125 9 C 18.926761 8.6842395 19 8.3529917 19 8 C 19 6.3549901 17.645009 5 16 5 z M 16 7 C 16.564129 7 17 7.4358709 17 8 C 17 8.5641291 16.564129 9 16 9 C 15.435871 9 15 8.5641291 15 8 C 15 7.4358709 15.435871 7 16 7 z M 9.8125 11 L 16 11 L 22.1875 11 L 25 25 L 7 25 L 9.8125 11 z" overflow="visible" font-family="Bitstream Vera Sans"/>
</svg>
